<svg width="150" height="150" viewBox="0 0 150 150" fill="none" xmlns="http://www.w3.org/2000/svg">
<g clip-path="url(#clip0_10_893)">
<path opacity="0.2" d="M23.4375 51.5625H126.562V28.125C126.562 26.8818 126.069 25.6895 125.19 24.8104C124.31 23.9314 123.118 23.4375 121.875 23.4375H28.125C26.8818 23.4375 25.6895 23.9314 24.8104 24.8104C23.9314 25.6895 23.4375 26.8818 23.4375 28.125V51.5625Z" fill="#038175"/>
<path d="M121.875 23.4375H28.125C25.5362 23.4375 23.4375 25.5362 23.4375 28.125V121.875C23.4375 124.464 25.5362 126.562 28.125 126.562H121.875C124.464 126.562 126.562 124.464 126.562 121.875V28.125C126.562 25.5362 124.464 23.4375 121.875 23.4375Z" stroke="#038175" stroke-width="7" stroke-linecap="round" stroke-linejoin="round"/>
<path d="M103.125 14.0625V32.8125" stroke="#038175" stroke-width="7" stroke-linecap="round" stroke-linejoin="round"/>
<path d="M46.875 14.0625V32.8125" stroke="#038175" stroke-width="7" stroke-linecap="round" stroke-linejoin="round"/>
<path d="M23.4375 51.5625H126.562" stroke="#038175" stroke-width="7" stroke-linecap="round" stroke-linejoin="round"/>
<path d="M75 84.375C78.8833 84.375 82.0312 81.227 82.0312 77.3438C82.0312 73.4605 78.8833 70.3125 75 70.3125C71.1167 70.3125 67.9688 73.4605 67.9688 77.3438C67.9688 81.227 71.1167 84.375 75 84.375Z" fill="#038175"/>
<path d="M100.781 84.375C104.665 84.375 107.812 81.227 107.812 77.3438C107.812 73.4605 104.665 70.3125 100.781 70.3125C96.898 70.3125 93.75 73.4605 93.75 77.3438C93.75 81.227 96.898 84.375 100.781 84.375Z" fill="#038175"/>
<path d="M49.2188 107.812C53.102 107.812 56.25 104.665 56.25 100.781C56.25 96.898 53.102 93.75 49.2188 93.75C45.3355 93.75 42.1875 96.898 42.1875 100.781C42.1875 104.665 45.3355 107.812 49.2188 107.812Z" fill="#038175"/>
<path d="M75 107.812C78.8833 107.812 82.0312 104.665 82.0312 100.781C82.0312 96.898 78.8833 93.75 75 93.75C71.1167 93.75 67.9688 96.898 67.9688 100.781C67.9688 104.665 71.1167 107.812 75 107.812Z" fill="#038175"/>
<path d="M100.781 107.812C104.665 107.812 107.812 104.665 107.812 100.781C107.812 96.898 104.665 93.75 100.781 93.75C96.898 93.75 93.75 96.898 93.75 100.781C93.75 104.665 96.898 107.812 100.781 107.812Z" fill="#038175"/>
</g>
<defs>
<clipPath id="clip0_10_893">
<rect width="150" height="150" fill="white"/>
</clipPath>
</defs>
</svg>
