<svg width="45" height="45" viewBox="0 0 45 45" fill="none" xmlns="http://www.w3.org/2000/svg">
<path d="M20.5 2.3094C21.7376 1.59487 23.2624 1.59487 24.5 2.3094L38.9856 10.6726C40.2232 11.3872 40.9856 12.7077 40.9856 14.1368V30.8632C40.9856 32.2923 40.2232 33.6128 38.9856 34.3274L24.5 42.6906C23.2624 43.4051 21.7376 43.4051 20.5 42.6906L6.01443 34.3274C4.77682 33.6128 4.01443 32.2923 4.01443 30.8632V14.1368C4.01443 12.7077 4.77682 11.3872 6.01443 10.6727L20.5 2.3094Z" stroke="#FFE3B3" stroke-width="2"/>
<path d="M20.6509 13.7098C21.8885 12.9953 23.4133 12.9953 24.6509 13.7098L29.3937 16.448C30.6313 17.1626 31.3937 18.4831 31.3937 19.9121V25.3886C31.3937 26.8177 30.6313 28.1382 29.3937 28.8527L24.6509 31.591C23.4133 32.3055 21.8885 32.3055 20.6509 31.591L15.9081 28.8527C14.6705 28.1382 13.9081 26.8177 13.9081 25.3886V19.9121C13.9081 18.4831 14.6705 17.1626 15.9081 16.448L20.6509 13.7098Z" stroke="#FFE3B3" stroke-width="2"/>
<path d="M22.6509 1.80078V12.6008" stroke="#FFE3B3" stroke-width="2"/>
<path d="M22.5 32.6987V43.4988" stroke="#FFE3B3" stroke-width="2"/>
<path d="M40.5552 12.3013L31.2021 17.7013" stroke="#FFE3B3" stroke-width="2"/>
<path d="M14.627 27.001L4.20206 33.3016" stroke="#FFE3B3" stroke-width="2"/>
<path d="M4.19922 12.3013L14.6241 18.0007" stroke="#FFE3B3" stroke-width="2"/>
<path d="M31.2002 27.9014L40.5533 33.3014" stroke="#FFE3B3" stroke-width="2"/>
<path d="M22.5 16.875V28.125" stroke="#E98E4E" stroke-width="2"/>
<path d="M16.875 22.5H28.125" stroke="#E98E4E" stroke-width="2"/>
</svg>
