<svg width="45" height="45" viewBox="0 0 45 45" fill="none" xmlns="http://www.w3.org/2000/svg">
<path d="M20.5 2.3094C21.7376 1.59487 23.2624 1.59487 24.5 2.3094L38.9856 10.6726C40.2232 11.3872 40.9856 12.7077 40.9856 14.1368V30.8632C40.9856 32.2923 40.2232 33.6128 38.9856 34.3274L24.5 42.6906C23.2624 43.4051 21.7376 43.4051 20.5 42.6906L6.01443 34.3274C4.77682 33.6128 4.01443 32.2923 4.01443 30.8632V14.1368C4.01443 12.7077 4.77682 11.3872 6.01443 10.6727L20.5 2.3094Z" stroke="#038175" stroke-width="2"/>
<path d="M20.6499 13.7089C21.8875 12.9944 23.4123 12.9944 24.6499 13.7089L29.3927 16.4472C30.6303 17.1617 31.3927 18.4822 31.3927 19.9113V25.3878C31.3927 26.8168 30.6303 28.1374 29.3927 28.8519L24.6499 31.5901C23.4123 32.3047 21.8875 32.3047 20.6499 31.5901L15.9071 28.8519C14.6695 28.1374 13.9071 26.8168 13.9071 25.3878V19.9113C13.9071 18.4822 14.6695 17.1617 15.9071 16.4472L20.6499 13.7089Z" stroke="#038175" stroke-width="2"/>
<path d="M22.6499 1.80054V12.6006" stroke="#038175" stroke-width="2"/>
<path d="M22.5 32.6996V43.4996" stroke="#038175" stroke-width="2"/>
<path d="M40.5532 12.3004L31.2001 17.7004" stroke="#038175" stroke-width="2"/>
<path d="M14.625 26.9999L4.2001 33.3005" stroke="#038175" stroke-width="2"/>
<path d="M4.2002 12.3004L14.6251 17.9998" stroke="#038175" stroke-width="2"/>
<path d="M31.2002 27.9005L40.5533 33.3005" stroke="#038175" stroke-width="2"/>
<path d="M22.5 16.875V28.125" stroke="#E98E4E" stroke-width="2"/>
<path d="M16.875 22.5H28.125" stroke="#E98E4E" stroke-width="2"/>
</svg>
