<svg width="150" height="150" viewBox="0 0 150 150" fill="none" xmlns="http://www.w3.org/2000/svg">
<g clip-path="url(#clip0_10_874)">
<path opacity="0.2" d="M126.562 28.125H23.4375C22.1943 28.125 21.002 28.6189 20.1229 29.4979C19.2439 30.377 18.75 31.5693 18.75 32.8125V112.5C18.75 113.743 19.2439 114.935 20.1229 115.815C21.002 116.694 22.1943 117.188 23.4375 117.188H126.562C127.806 117.188 128.998 116.694 129.877 115.815C130.756 114.935 131.25 113.743 131.25 112.5V32.8125C131.25 31.5693 130.756 30.377 129.877 29.4979C128.998 28.6189 127.806 28.125 126.562 28.125ZM89.0625 98.4375C84.427 98.4375 79.8956 97.0629 76.0413 94.4876C72.187 91.9122 69.183 88.2518 67.4091 83.9691C65.6351 79.6865 65.171 74.974 66.0753 70.4276C66.9797 65.8811 69.2119 61.705 72.4897 58.4272C75.7675 55.1494 79.9436 52.9172 84.4901 52.0128C89.0365 51.1085 93.749 51.5726 98.0316 53.3466C102.314 55.1205 105.975 58.1245 108.55 61.9788C111.125 65.8331 112.5 70.3645 112.5 75C112.5 78.0779 111.894 81.1256 110.716 83.9691C109.538 86.8127 107.812 89.3964 105.635 91.5728C103.459 93.7492 100.875 95.4756 98.0316 96.6534C95.1881 97.8313 92.1404 98.4375 89.0625 98.4375Z" fill="#038175"/>
<path d="M112.5 117.188V131.25" stroke="#038175" stroke-width="7" stroke-linecap="round" stroke-linejoin="round"/>
<path d="M37.5 117.188V131.25" stroke="#038175" stroke-width="7" stroke-linecap="round" stroke-linejoin="round"/>
<path d="M126.562 28.125H23.4375C20.8487 28.125 18.75 30.2237 18.75 32.8125V112.5C18.75 115.089 20.8487 117.188 23.4375 117.188H126.562C129.151 117.188 131.25 115.089 131.25 112.5V32.8125C131.25 30.2237 129.151 28.125 126.562 28.125Z" stroke="#038175" stroke-width="7" stroke-linecap="round" stroke-linejoin="round"/>
<path d="M89.0625 84.375C94.2402 84.375 98.4375 80.1777 98.4375 75C98.4375 69.8223 94.2402 65.625 89.0625 65.625C83.8848 65.625 79.6875 69.8223 79.6875 75C79.6875 80.1777 83.8848 84.375 89.0625 84.375Z" fill="#038175"/>
<path d="M89.0625 75H131.25" stroke="#038175" stroke-width="7" stroke-linecap="round" stroke-linejoin="round"/>
<path d="M89.0625 98.4375C102.007 98.4375 112.5 87.9442 112.5 75C112.5 62.0558 102.007 51.5625 89.0625 51.5625C76.1183 51.5625 65.625 62.0558 65.625 75C65.625 87.9442 76.1183 98.4375 89.0625 98.4375Z" stroke="#038175" stroke-width="7" stroke-linecap="round" stroke-linejoin="round"/>
</g>
<defs>
<clipPath id="clip0_10_874">
<rect width="150" height="150" fill="white"/>
</clipPath>
</defs>
</svg>
